<?xml version="1.0" encoding="UTF-8"?>
<svg version="1.1" viewBox="0 0 1200 1200" width="300" height="300" xmlns="http://www.w3.org/2000/svg">
<path transform="translate(0)" d="m0 0h1200v1200h-1200z"/>
<path transform="translate(214,67)" d="m0 0h359l40 3 28 4 25 6 18 6 16 7 18 11 11 9 3 2v2l4 2 11 13 9 14 8 16 7 22 4 20 2 20v38l-3 26-6 25-6 17-9 19-10 15-11 14-7 7-11 9-14 10-21 11-25 9-20 5-14 2 3 2 17 6 13 8 10 9 7 8 8 14 6 18 3 15 2 25v29l-2 66v53l3 23 6 24 8 20 3 5h24l4-5 6-11 16-27 63-105 13-22 24-40 8-13 2 1 2 10 9 58 18 111 7 43 1 2h228v3l-12 7-18 13-19 13-23 16-16 11-23 16-19 13-20 14-19 13-23 16-14 10 6 42 12 81 14 93 1 9-4-1-10-8-28-21-63-48-12-9-42-32-17-13-3-2-4 1-28 16-22 13-78 46-26 15-22 13-29 17-24 14-8 4-1-2 15-31 12-26 19-40 15-32 9-20 8-16 13-28 16-34 4-8v-4h-2l-7-8-13-13-7-8-17-17-7-8-15-15-7-8-16-16-7-8-12-12-7-8-11-11-6-10-5-17-2-15v-43l3-52v-53l-3-17-5-15-7-12-8-9-14-9-12-5-12-3-7-1h-140l-16 75-35 164-2 4h-181l1-9 19-90 13-61 18-84 22-103 28-131 23-108 17-79 3-9z" fill="#fff"/>
<path transform="translate(846,631)" d="m0 0h2l16 100 9 55 1 5 149 1v2l-10 7-19 13-46 32-35 24-17 12-6 4v9l12 80 9 62 2 14-7-4-11-9-12-9-63-48-16-12-17-13-4-3-6 1-13 8-51 30-48 28-32 19-15 9h-2l2-6 13-28 8-16 14-30 32-68 5-11-2-4-12-13-12-12-7-8-20-20-7-8-10-10-7-8-14-14v-1l152-1 30-50 17-28 17-29 21-35 8-13z"/>
<path transform="translate(368,209)" d="m0 0h150l19 2 21 6 15 8 10 9 6 8 5 10 3 11 1 7v18l-3 17-5 15-7 12-11 12-13 9-12 6-18 6-22 4-14 1h-159l1-9 19-90 13-61z"/>
</svg>
